<svg width="130" height="130" viewBox="0 0 130 130" fill="none" xmlns="http://www.w3.org/2000/svg">
<path fill-rule="evenodd" clip-rule="evenodd" d="M63.5272 118.699C64.127 119.012 64.7977 119.172 65.4685 119.166C66.1392 119.161 66.8045 118.996 67.4098 118.678L86.7358 108.347C92.2163 105.425 96.5079 102.159 99.8561 98.3556C107.136 90.0694 111.111 79.494 111.041 68.5893L110.812 32.6191C110.79 28.476 108.069 24.7791 104.044 23.4353L68.0915 11.3726C65.9266 10.6396 63.5544 10.6556 61.4277 11.4098L25.6113 23.9027C21.6087 25.2997 18.9366 29.0231 18.9585 33.1715L19.1875 69.1151C19.2584 80.0358 23.3701 90.5634 30.77 98.7645C34.151 102.515 38.4808 105.733 44.0212 108.607L63.5272 118.699ZM58.4111 76.4234C59.2182 77.1989 60.2652 77.5813 61.3122 77.5707C62.3592 77.5654 63.4008 77.1723 64.1969 76.3862L85.317 55.5647C86.9039 53.9978 86.8876 51.4801 85.2843 49.9344C83.6756 48.3887 81.0854 48.3994 79.4985 49.9663L61.2522 67.9514L53.7814 60.7701C52.1727 59.2244 49.5879 59.2403 47.9956 60.8073C46.4087 62.3742 46.4251 64.8919 48.0338 66.4376L58.4111 76.4234Z" fill="url(#paint0_linear_214_6)"/>
<defs>
<linearGradient id="paint0_linear_214_6" x1="-4" y1="-3.5" x2="133" y2="200.5" gradientUnits="userSpaceOnUse">
<stop stop-color="#B8FEF6"/>
<stop offset="1" stop-color="#56E8D8"/>
</linearGradient>
</defs>
</svg>
