<svg width="130" height="130" viewBox="0 0 130 130" fill="none" xmlns="http://www.w3.org/2000/svg">
<path d="M97.0585 77.5673C95.6556 78.9269 95.011 80.8931 95.3306 82.8215L100.146 109.471C100.552 111.73 99.5989 114.016 97.7085 115.321C95.856 116.676 93.3914 116.838 91.371 115.755L67.3806 103.242C66.5464 102.798 65.6202 102.56 64.6723 102.533H63.2044C62.6952 102.609 62.1969 102.771 61.7419 103.02L37.746 115.592C36.5598 116.188 35.2164 116.399 33.9002 116.188C30.6935 115.581 28.5539 112.526 29.0794 109.304L33.9002 82.6535C34.2198 80.709 33.5752 78.7319 32.1723 77.3506L12.6127 58.3923C10.9769 56.8052 10.4081 54.4219 11.1556 52.2715C11.8814 50.1265 13.7339 48.5611 15.971 48.209L42.8919 44.3035C44.9394 44.0923 46.7377 42.8465 47.6585 41.0048L59.521 16.684C59.8027 16.1423 60.1656 15.644 60.6044 15.2215L61.0919 14.8423C61.3464 14.5606 61.6389 14.3277 61.9639 14.1381L62.5544 13.9215L63.4752 13.5423H65.7556C67.7923 13.7535 69.5852 14.9723 70.5223 16.7923L82.5419 41.0048C83.4085 42.776 85.0931 44.0056 87.0377 44.3035L113.959 48.209C116.234 48.534 118.135 50.1048 118.888 52.2715C119.597 54.4436 118.985 56.8269 117.317 58.3923L97.0585 77.5673Z" fill="url(#paint0_linear_214_5)"/>
<defs>
<linearGradient id="paint0_linear_214_5" x1="1.5" y1="-7.5" x2="126.5" y2="182" gradientUnits="userSpaceOnUse">
<stop stop-color="#FFD3C1"/>
<stop offset="1" stop-color="#FFB08F"/>
</linearGradient>
</defs>
</svg>
