<svg width="130" height="129" viewBox="0 0 130 129" fill="none" xmlns="http://www.w3.org/2000/svg">
<path fill-rule="evenodd" clip-rule="evenodd" d="M87.5242 44.2516C87.5242 56.8811 77.3778 67.008 64.7239 67.008C52.07 67.008 41.9236 56.8811 41.9236 44.2516C41.9236 31.6172 52.07 21.5 64.7239 21.5C77.3778 21.5 87.5242 31.6172 87.5242 44.2516ZM64.7239 107.5C46.1383 107.5 30.2688 104.576 30.2688 92.8809C30.2688 81.1807 46.0365 78.1504 64.7239 78.1504C83.3095 78.1504 99.179 81.0742 99.179 92.7744C99.179 104.47 83.4113 107.5 64.7239 107.5ZM97.2676 44.6621C97.2676 51.1003 95.3324 57.098 91.9373 62.084C91.5881 62.5971 91.8985 63.2894 92.5145 63.3959C93.3632 63.5411 94.2411 63.6234 95.1335 63.6476C104.033 63.8799 112.022 58.163 114.228 49.5561C117.497 36.7717 107.899 25.2942 95.6767 25.2942C94.3478 25.2942 93.0771 25.4346 91.8403 25.6863C91.6705 25.725 91.4911 25.8025 91.3941 25.9526C91.2777 26.1365 91.365 26.3834 91.4814 26.5431C95.1529 31.6792 97.2676 37.9431 97.2676 44.6621ZM112.007 72.6301C117.987 73.7967 121.921 76.1783 123.55 79.6395C124.928 82.481 124.928 85.7776 123.55 88.6143C121.057 93.9827 113.021 95.706 109.897 96.1513C109.252 96.2481 108.733 95.6915 108.801 95.0476C110.397 80.172 97.7041 73.119 94.4206 71.4973C94.2799 71.4247 94.2508 71.3134 94.2654 71.2456C94.2751 71.1972 94.3333 71.1197 94.44 71.1052C101.545 70.9745 109.184 71.9427 112.007 72.6301ZM34.8677 63.6471C35.7601 63.6229 36.6331 63.5454 37.4867 63.3954C38.1027 63.2889 38.4131 62.5966 38.0639 62.0835C34.6688 57.0975 32.7336 51.0998 32.7336 44.6616C32.7336 37.9426 34.8483 31.6787 38.5198 26.5426C38.6362 26.3829 38.7186 26.136 38.6071 25.9521C38.5101 25.8068 38.3258 25.7246 38.1609 25.6858C36.9193 25.4341 35.6485 25.2937 34.3196 25.2937C22.0974 25.2937 12.499 36.7712 15.7728 49.5556C17.9796 58.1625 25.9677 63.8794 34.8677 63.6471ZM35.7334 71.2427C35.748 71.3153 35.7189 71.4218 35.583 71.4993C32.2947 73.1209 19.602 80.1739 21.1977 95.0448C21.2656 95.6934 20.7515 96.2453 20.1064 96.1533C16.9829 95.7079 8.94632 93.9846 6.45336 88.6162C5.07109 85.7747 5.07109 82.483 6.45336 79.6415C8.083 76.1803 12.0116 73.7987 17.9917 72.6272C20.8194 71.9446 28.4534 70.9765 35.5637 71.1072C35.6704 71.1217 35.7237 71.1992 35.7334 71.2427Z" fill="url(#paint0_linear_214_4)"/>
<defs>
<linearGradient id="paint0_linear_214_4" x1="9.22838" y1="-9.61492" x2="117.332" y2="152.789" gradientUnits="userSpaceOnUse">
<stop stop-color="#FFB8E8"/>
<stop offset="1" stop-color="#FF6CCF"/>
</linearGradient>
</defs>
</svg>
