<svg width="80" height="70" viewBox="0 0 80 70" fill="none" xmlns="http://www.w3.org/2000/svg">
<g clip-path="url(#clip0_201_7)">
<path d="M35.478 19.734L27.216 32.37C29.7 33.234 31.752 34.8 33.372 37.068C34.992 39.228 35.802 41.874 35.802 45.006C35.802 48.894 34.452 52.242 31.752 55.05C29.052 57.75 25.758 59.1 21.87 59.1C17.982 59.1 14.634 57.75 11.826 55.05C9.126 52.242 7.776 48.894 7.776 45.006C7.776 42.954 8.1 41.118 8.748 39.498C9.504 37.878 10.53 36.15 11.826 34.314L25.92 13.416L35.478 19.734ZM70.956 19.734L62.694 32.37C65.178 33.234 67.23 34.8 68.85 37.068C70.47 39.228 71.28 41.874 71.28 45.006C71.28 48.894 69.93 52.242 67.23 55.05C64.53 57.75 61.236 59.1 57.348 59.1C53.46 59.1 50.112 57.75 47.304 55.05C44.604 52.242 43.254 48.894 43.254 45.006C43.254 42.954 43.578 41.118 44.226 39.498C44.982 37.878 46.008 36.15 47.304 34.314L61.398 13.416L70.956 19.734Z" fill="#8EBBFF"/>
</g>
<defs>
<clipPath id="clip0_201_7">
<rect width="80" height="70" fill="white"/>
</clipPath>
</defs>
</svg>
