<svg width="42" height="42" viewBox="0 0 42 42" fill="none" xmlns="http://www.w3.org/2000/svg">
<circle cx="21" cy="21" r="21" fill="url(#paint0_linear_9_5)"/>
<path d="M25.1774 22.612C24.7224 22.5141 24.3624 22.7254 24.0437 22.9099C23.7173 23.1 23.0966 23.6035 22.7408 23.4746C20.9193 22.7247 19.2062 21.1304 18.4646 19.3016C18.3338 18.9382 18.835 18.3136 19.0237 17.9833C19.2069 17.6636 19.4137 17.3002 19.3194 16.8418C19.2341 16.4298 18.1311 15.0264 17.7411 14.6426C17.4839 14.3891 17.2204 14.2496 16.9499 14.2271C15.9329 14.1834 14.7971 15.5404 14.5979 15.8651C14.0988 16.5573 14.1016 17.4784 14.6063 18.5952C15.8225 21.5951 20.4224 26.1224 23.4335 27.3843C23.9892 27.6442 24.4973 27.7745 24.9537 27.7745C25.4004 27.7745 25.7981 27.6498 26.1399 27.4026C26.3978 27.2541 27.8104 26.0619 27.7733 25.0175C27.751 24.7513 27.6119 24.4852 27.3617 24.2274C26.9807 23.8338 25.5863 22.6979 25.1774 22.612Z" fill="white"/>
<defs>
<linearGradient id="paint0_linear_9_5" x1="48.4355" y1="44.371" x2="-9.82258" y2="-3.3871" gradientUnits="userSpaceOnUse">
<stop stop-color="#8EBBFF"/>
<stop offset="1" stop-color="#8EBBFF" stop-opacity="0.43"/>
</linearGradient>
</defs>
</svg>
