<svg width="130" height="130" viewBox="0 0 130 130" fill="none" xmlns="http://www.w3.org/2000/svg">
<path fill-rule="evenodd" clip-rule="evenodd" d="M65 119.167C35.1 119.167 10.8333 94.9548 10.8333 65.0006C10.8333 35.1007 35.1 10.834 65 10.834C94.9542 10.834 119.167 35.1007 119.167 65.0006C119.167 94.9548 94.9542 119.167 65 119.167ZM82.2792 85.0965C82.9292 85.4756 83.6333 85.6923 84.3916 85.6923C85.7458 85.6923 87.1 84.9881 87.8583 83.6881C88.9958 81.7923 88.4 79.3006 86.45 78.1089L67.1666 66.6256V41.6006C67.1666 39.3256 65.325 37.5381 63.1041 37.5381C60.8833 37.5381 59.0416 39.3256 59.0416 41.6006V68.9548C59.0416 70.3631 59.8 71.6631 61.0458 72.4215L82.2792 85.0965Z" fill="url(#paint0_linear_214_7)"/>
<defs>
<linearGradient id="paint0_linear_214_7" x1="11" y1="-30" x2="147" y2="190" gradientUnits="userSpaceOnUse">
<stop stop-color="#FFF5C0"/>
<stop offset="1" stop-color="#FFE769"/>
</linearGradient>
</defs>
</svg>
